
<svg xmlns="http://www.w3.org/2000/svg" x="0px" y="0px" width="100" height="100" viewBox="0 0 50 50">
<path d="M 14 4 C 8.49 4 4 8.49 4 14 L 4 36 C 4 38.32 4.789375 40.450625 6.109375 42.140625 C 7.029375 43.310625 8.1990625 44.279219 9.5390625 44.949219 C 10.879063 45.619219 12.4 46 14 46 L 16.960938 46 L 25.660156 46 L 36 46 C 41.51 46 46 41.51 46 36 L 46 18.980469 L 46 14 C 46 11.85 45.320156 9.8604687 44.160156 8.2304688 C 42.350156 5.6704687 39.36 4 36 4 L 31.060547 4 L 26.060547 4 L 14 4 z M 14 6 L 24.410156 6 C 23.830156 7 23.430703 8.1699219 23.220703 9.4199219 C 22.550703 13.509922 24.130078 17.099375 26.830078 17.609375 C 27.060078 17.649375 27.250703 17.660156 27.470703 17.660156 C 28.700703 17.660156 29.889609 16.999375 30.849609 15.859375 C 31.809609 14.719375 32.539609 13.120234 32.849609 11.240234 C 33.159609 9.3702344 32.979141 7.5 32.369141 6 L 36 6 C 38.41 6 40.569297 7.0602344 42.029297 8.7402344 C 40.779297 9.1902344 39.520078 9.8792969 38.330078 10.779297 C 34.190078 13.899297 32.329609 18.399297 34.099609 21.029297 C 34.249609 21.239297 34.400078 21.409844 34.580078 21.589844 C 35.590078 22.569844 37.139453 22.939688 38.939453 22.679688 C 40.529453 22.459688 42.29 21.759844 44 20.589844 L 44 36 C 44 40.43 40.43 44 36 44 L 27.779297 44 C 31.609297 39.59 33.980938 32.090391 32.710938 26.650391 C 31.720937 22.420391 28.649766 20 24.259766 20 C 14.429766 20 9.2700781 31.360781 6.8300781 39.550781 C 6.2900781 38.480781 6 37.28 6 36 L 6 14 C 6 9.57 9.57 6 14 6 z M 16.119141 7.0039062 C 15.614391 6.9796406 15.121219 7.1042812 14.667969 7.3945312 C 12.854969 8.5705313 12.462438 11.896703 13.773438 14.970703 C 14.371438 16.377703 15.247422 17.514922 16.232422 18.169922 C 16.836422 18.563922 17.441766 18.765625 18.009766 18.765625 C 18.480766 18.765625 18.926891 18.631094 19.337891 18.371094 C 20.431891 17.663094 21 16.174781 21 14.425781 C 21 13.279781 20.751422 12.021922 20.232422 10.794922 C 19.253672 8.4894219 17.633391 7.0767031 16.119141 7.0039062 z M 9.6191406 16.015625 C 8.7241406 15.928625 7.9348437 16.225594 7.4648438 16.808594 C 6.9828437 17.397594 6.8703437 18.223266 7.1523438 19.072266 C 7.3963437 19.816266 7.9285781 20.547328 8.6425781 21.111328 C 9.4875781 21.787328 10.432203 22.123047 11.283203 22.123047 C 12.034203 22.123047 12.704578 21.855406 13.142578 21.316406 C 14.069578 20.163406 13.550937 18.272672 11.960938 17.013672 C 11.246937 16.443672 10.414141 16.095625 9.6191406 16.015625 z M 24.259766 24 C 26.799766 24 28.250547 25.130781 28.810547 27.550781 C 29.990547 32.630781 26.469922 41.320312 22.419922 43.320312 C 21.609922 43.710313 20.480938 43.999844 19.710938 43.089844 C 18.670938 41.869844 18.629609 39.069297 20.599609 36.279297 C 21.229609 35.379297 21.019141 34.130234 20.119141 33.490234 C 19.209141 32.850234 17.970078 33.070703 17.330078 33.970703 C 14.990078 37.290703 14.389141 41.14 15.619141 44 L 14 44 C 12.55 44 11.189531 43.619219 10.019531 42.949219 C 12.079531 35.019219 16.629766 24 24.259766 24 z M 25.880859 28.068359 C 25.239703 28.054813 24.550359 28.495984 24.099609 29.271484 C 23.498609 30.312484 23.619672 31.483016 24.388672 31.916016 C 24.572672 32.028016 24.781859 32.083984 25.005859 32.083984 C 25.237859 32.083984 25.47875 32.028203 25.71875 31.908203 C 26.15175 31.700203 26.543219 31.314797 26.824219 30.841797 C 27.096219 30.360797 27.225734 29.839188 27.177734 29.367188 C 27.121734 28.862188 26.872094 28.454281 26.496094 28.238281 C 26.303844 28.128031 26.094578 28.072875 25.880859 28.068359 z M 35.109375 29.949219 L 35.119141 30.359375 C 35.259141 33.809375 34.01 36.98 34 37 L 34.390625 36.669922 C 36.050625 35.259922 37.399766 34.430234 38.759766 33.990234 C 39.069766 33.890234 39.289375 33.640078 39.359375 33.330078 C 39.419375 33.010078 39.320078 32.700469 39.080078 32.480469 C 38.370078 31.830469 37.160469 30.899141 35.480469 30.119141 L 35.109375 29.949219 z"></path>
<style>
        path { fill: #FFF; }
        @media (prefers-color-scheme: white) {
            path { fill: #000; }
        }
    </style>
</svg>